<?xml version="1.0" encoding="utf-8"?>
<!-- Generator: Adobe Illustrator 18.1.0, SVG Export Plug-In . SVG Version: 6.00 Build 0)  -->
<svg version="1.1" id="Layer_1" xmlns="http://www.w3.org/2000/svg" xmlns:xlink="http://www.w3.org/1999/xlink" x="0px" y="0px"
	 viewBox="0 0 500 500" enable-background="new 0 0 500 500" xml:space="preserve">
<path fill="#010101" d="M482.6,303.3c16.7-76.1-4.5-158.7-63.5-217.9C363,29.4,285.9,7.4,213.3,19.4C153.2-12.8,80.3-4.9,36.9,43.3
	C-2.5,86.8-6.6,151,21.3,204.7c-15.2,75,6.2,155.9,64.3,214c56.6,56.6,135,78.5,208.2,65.5c58.7,27.9,127.4,18.7,169.2-27.5
	C500.6,415.2,506.2,355.2,482.6,303.3z M390.2,320.1c-8.1,77.1-86.3,95.9-134.6,94.9c-48.3-1.1-106.1-7.1-137.6-71.1
	c0,0-18.2-44,17.7-53.8s48.7,29.4,48.7,29.4s14.6,48.7,74.4,41.7c59.9-7.1,56.9-39.9,56.2-47.7s-4-25.5-56.2-37.1
	c-52.1-11.6-117.1-21-135.7-75.5s27.8-94.8,60.6-103.8c32.5-10.7,87.9-22.4,147.9,7.1c0,0,43.7,22.7,44,61.2
	c0.4,38.6-49.4,38.6-58.9,21.7l-13.9-22.3c0,0-17.3-34.9-72.6-25.4c-55.3,9.7-43.2,49.2-16.2,58.4c26.8,9.2,95.9,25.9,95.9,25.9
	S398.3,243,390.2,320.1z"/>
</svg>
